<svg xmlns="http://www.w3.org/2000/svg" width="125" height="124.998" viewBox="0 0 125 124.998"><defs><style>.a{fill:#233746;}.b{fill:#fff;}</style></defs><path class="a" d="M242.34,387.233a62.5,62.5,0,1,1-62.5-62.5,62.5,62.5,0,0,1,62.5,62.5" transform="translate(-117.34 -324.734)"/><path class="b" d="M171.1,363.287a16.247,16.247,0,1,0-20.659,0,23.149,23.149,0,0,0-18.384,22.622v12.606a7.713,7.713,0,0,0,7.7,7.7h42.021a7.712,7.712,0,0,0,7.7-7.7V385.909A23.147,23.147,0,0,0,171.1,363.287m-22.374-12.533A12.045,12.045,0,1,1,160.766,362.8a12.058,12.058,0,0,1-12.044-12.046m36.556,47.762a3.5,3.5,0,0,1-3.5,3.5h-18.62a7.72,7.72,0,0,1,7.415-5.6h7a2.1,2.1,0,0,0,2.1-2.1v-7a2.1,2.1,0,0,0-4.2,0v4.9h-4.9a11.9,11.9,0,0,0-9.807,5.162,11.892,11.892,0,0,0-9.8-5.162h-4.9v-4.9a2.1,2.1,0,1,0-4.2,0v7a2.1,2.1,0,0,0,2.1,2.1h7a7.716,7.716,0,0,1,7.412,5.6H139.758a3.505,3.505,0,0,1-3.5-3.5V385.909A18.932,18.932,0,0,1,155.166,367h11.206a18.93,18.93,0,0,1,18.907,18.909Z" transform="translate(-98.267 -312.067)"/><path class="b" d="M155.956,350.488a7.059,7.059,0,0,0-4.721,1.793,7.107,7.107,0,0,0-9.745,10.34l8.26,8.262a2.1,2.1,0,0,0,2.971,0l8.262-8.262a7.108,7.108,0,0,0-5.026-12.133m2.055,9.162-6.776,6.776-6.774-6.776a2.906,2.906,0,0,1,4.11-4.11l1.178,1.183a2.1,2.1,0,0,0,2.971,0l1.18-1.183a2.906,2.906,0,1,1,4.11,4.11" transform="translate(-88.736 -291.351)"/></svg>