<svg xmlns="http://www.w3.org/2000/svg" width="150" height="150" viewBox="0 0 150 150"><defs><style>.a{fill:#d8dfe1;}.b{fill:#243746;}</style></defs><g transform="translate(-355 -3676)"><rect class="a" width="150" height="150" rx="20" transform="translate(355 3676)"/><g transform="translate(342.432 3697)"><path class="b" d="M22.246,43.014A61.578,61.578,0,0,0,26.473,52.1l.165.252c1.191,1.818,3.408,5.2,10.379,5.2s9.184-3.382,10.376-5.2l.169-.256a61.422,61.422,0,0,0,4.227-9.089A3.852,3.852,0,0,0,54.076,39.5V35.974a3.85,3.85,0,0,0-1.762-3.232v-1.17c0-8.476-5.719-13.538-15.3-13.538s-15.3,5.061-15.3,13.538v1.19a3.884,3.884,0,0,0-1.762,3.212V39.5A3.853,3.853,0,0,0,22.246,43.014Zm1.888-6.739A2.089,2.089,0,0,0,25.9,34.212V31.57c0-6.124,3.846-9.362,11.121-9.362s11.121,3.238,11.121,9.362v2.641A2.089,2.089,0,0,0,49.9,36.275v2.919a2.091,2.091,0,0,0-1.63,1.329,65.675,65.675,0,0,1-4.183,9.262l-.188.283c-.968,1.476-2.172,3.313-6.883,3.313S31.1,51.541,30.13,50.065l-.185-.28a66.009,66.009,0,0,1-4.184-9.264,2.088,2.088,0,0,0-1.63-1.329V36.275ZM53.5,61.63H20.528A12.542,12.542,0,0,0,8,74.158v8.814A12.542,12.542,0,0,0,20.528,95.5H53.5A12.542,12.542,0,0,0,66.033,82.972V74.158A12.542,12.542,0,0,0,53.5,61.63Zm8.352,21.342A8.362,8.362,0,0,1,53.5,91.324H20.528a8.362,8.362,0,0,1-8.352-8.352V74.158a8.362,8.362,0,0,1,8.352-8.352H53.5a8.362,8.362,0,0,1,8.352,8.352ZM92.579,27.116H80.05V14.588a2.088,2.088,0,1,0-4.176,0V27.116H63.346a2.088,2.088,0,0,0,0,4.176H75.874V43.821a2.088,2.088,0,1,0,4.176,0V31.292H92.579a2.088,2.088,0,1,0,0-4.176Z" transform="translate(36.234)"/></g></g></svg>