<svg xmlns="http://www.w3.org/2000/svg" width="150" height="150" viewBox="0 0 150 150"><defs><style>.a{fill:#d8dfe1;}.b{fill:#243746;}</style></defs><g transform="translate(-355 -3676)"><rect class="a" width="150" height="150" rx="20" transform="translate(355 3676)"/><g transform="translate(350.315 3698.751)"><g transform="translate(38.581 10.749)"><path class="b" d="M38.6,11.783H21.964A10.87,10.87,0,0,0,11.108,22.639V39.272A10.87,10.87,0,0,0,21.964,50.128H38.6A10.87,10.87,0,0,0,49.451,39.272V22.639A10.87,10.87,0,0,0,38.6,11.783Zm4.934,27.485A4.934,4.934,0,0,1,38.6,44.2H21.964a4.934,4.934,0,0,1-4.934-4.934V22.639A4.934,4.934,0,0,1,21.964,17.7H38.6a4.934,4.934,0,0,1,4.934,4.934ZM38.6,55.408H21.964A10.87,10.87,0,0,0,11.108,66.264V82.893A10.87,10.87,0,0,0,21.964,93.749H38.6A10.87,10.87,0,0,0,49.451,82.893V66.264A10.87,10.87,0,0,0,38.6,55.408Zm4.934,27.485A4.934,4.934,0,0,1,38.6,87.828H21.964a4.934,4.934,0,0,1-4.934-4.934V66.264a4.934,4.934,0,0,1,4.934-4.934H38.6a4.934,4.934,0,0,1,4.934,4.934ZM82.216,55.408H65.589A10.87,10.87,0,0,0,54.733,66.264V82.893A10.87,10.87,0,0,0,65.589,93.749H82.218A10.87,10.87,0,0,0,93.074,82.893V66.264A10.87,10.87,0,0,0,82.218,55.408ZM87.15,82.893a4.934,4.934,0,0,1-4.934,4.934H65.589a4.934,4.934,0,0,1-4.934-4.934V66.264a4.934,4.934,0,0,1,4.934-4.934H82.218a4.934,4.934,0,0,1,4.934,4.934ZM70.024,38.045a8.028,8.028,0,0,0,3.869.987,8.09,8.09,0,0,0,3.89-15.178h0a8.087,8.087,0,1,0-7.759,14.192ZM72,29.917a2.171,2.171,0,1,1,.861,2.933A2.171,2.171,0,0,1,72,29.917Zm-14.8,2.353a11.766,11.766,0,0,0-2.313,4.325,2.961,2.961,0,0,0,.312,2.369l2.992,4.915a2.974,2.974,0,0,0,1.964,1.368,11.783,11.783,0,0,0,4.9-.069l1.632.892a11.728,11.728,0,0,0,2.59,4.169,2.961,2.961,0,0,0,2.142.916h.075l5.752-.134A2.961,2.961,0,0,0,79.413,50a11.724,11.724,0,0,0,2.4-4.285l1.579-.965a11.645,11.645,0,0,0,4.909-.162,2.949,2.949,0,0,0,1.893-1.455l2.763-5.047a2.961,2.961,0,0,0,.2-2.388,11.8,11.8,0,0,0-2.511-4.208L90.6,29.632a11.778,11.778,0,0,0,2.313-4.323,2.961,2.961,0,0,0-.314-2.369l-2.99-4.917a2.961,2.961,0,0,0-1.974-1.37,11.843,11.843,0,0,0-4.9.069L81.1,15.83a11.7,11.7,0,0,0-2.588-4.165,3.053,3.053,0,0,0-2.211-.916l-5.754.132A2.961,2.961,0,0,0,68.389,11.9a11.74,11.74,0,0,0-2.4,4.283l-1.579.965a11.758,11.758,0,0,0-4.9.158,2.961,2.961,0,0,0-1.9,1.459L54.849,23.81a2.949,2.949,0,0,0-.2,2.386,11.8,11.8,0,0,0,2.509,4.212ZM62.1,22.89a6.782,6.782,0,0,1,.859,0,2.947,2.947,0,0,0,3.235.1l4.175-2.54a2.961,2.961,0,0,0,1.4-2.919,5.266,5.266,0,0,1,.395-.764l2.823-.065a5.242,5.242,0,0,1,.428.744,2.961,2.961,0,0,0,1.53,2.852l4.289,2.345a2.961,2.961,0,0,0,3.227-.251,4.966,4.966,0,0,1,.857-.039l1.467,2.412a5.415,5.415,0,0,1-.43.744,2.961,2.961,0,0,0-1.705,2.748l.113,4.887a2.961,2.961,0,0,0,1.832,2.669,5.624,5.624,0,0,1,.464.722L85.7,39.016a4.9,4.9,0,0,1-.857,0,2.961,2.961,0,0,0-3.235-.1l-4.175,2.54a2.961,2.961,0,0,0-1.405,2.919,5.367,5.367,0,0,1-.395.764l-2.823.065a5.4,5.4,0,0,1-.43-.744,2.961,2.961,0,0,0-1.528-2.854l-4.289-2.347a2.961,2.961,0,0,0-3.227.253,5.849,5.849,0,0,1-.857.041l-1.453-2.412a5.526,5.526,0,0,1,.432-.746,2.961,2.961,0,0,0,1.705-2.748l-.113-4.885a2.961,2.961,0,0,0-1.832-2.671,5.4,5.4,0,0,1-.464-.724Z" transform="translate(-11.108 -10.749)"/></g></g></g></svg>