<svg xmlns="http://www.w3.org/2000/svg" width="1981.64" height="2150.992" viewBox="0 0 1981.64 2150.992"><defs><style>.a{opacity:0.2;}.b{fill:#d8dfe1;}</style></defs><g class="a" transform="translate(-42.911 -20.16)"><path class="b" d="M1033.731,2171.152a24.907,24.907,0,0,1-7.946-1.306L429.316,1969.529a25.816,25.816,0,0,1-12.844-9.656L47.831,1435.4a27.154,27.154,0,0,1-4.92-15.613V771.523a27.182,27.182,0,0,1,4.92-15.613L416.473,231.441a25.681,25.681,0,0,1,12.844-9.656L1025.785,21.457a25.016,25.016,0,0,1,15.9,0l596.469,200.328A25.729,25.729,0,0,1,1651,231.441L2019.63,755.91a27.181,27.181,0,0,1,4.921,15.613v648.269a27.153,27.153,0,0,1-4.921,15.613L1651,1959.873a25.865,25.865,0,0,1-12.844,9.656l-596.469,200.317A24.923,24.923,0,0,1,1033.731,2171.152Zm-580.578-249.5,580.578,194.99,580.589-194.99,358.812-510.483V780.159L1614.32,269.665l-580.589-195-580.578,195L94.33,780.159v631.007Z" transform="translate(0 0)"/><path class="b" d="M359.828,490.6,162.442,199.857l83.977-45.28A310.043,310.043,0,0,1,202.9,121.943l-87.046,46.929a24.818,24.818,0,0,0-12.234,16.162,25.5,25.5,0,0,0,3.679,20.171L359.33,576.447A205.664,205.664,0,0,1,359.828,490.6Z" transform="translate(605.141 1064.097)"/><path class="b" d="M1036.275,577.357,600.723,247.616a23.616,23.616,0,0,0-3.812-2.36L191.711,44.321a23.388,23.388,0,0,0-19.06-.779,24.459,24.459,0,0,0-13.619,13.791l-32.17,81.35c.454,0,.9-.034,1.352-.034a300.446,300.446,0,0,1,48.925,4.364l16.778-42.428L574.082,289.1,996.725,609.052l-49.889,504.985L641.9,1325.625a203.733,203.733,0,0,1-7.2,64.913l348.329-241.713a25.045,25.045,0,0,0,10.528-18.121l52.438-530.769A25.186,25.186,0,0,0,1036.275,577.357Z" transform="translate(846.353 227.074)"/><path class="b" d="M872.875,1697.025a23.294,23.294,0,0,1-9.63-2.1,24.654,24.654,0,0,1-13.885-17.571L712.967,1019.512,640.836,916.9,327.2,1007.737a23.744,23.744,0,0,1-27.449-11.718L61.965,560.506a25.591,25.591,0,0,1,1.5-26.838L365.192,104.386a23.9,23.9,0,0,1,17.232-10.149l488.224-47a23.594,23.594,0,0,1,18.717,6.644l303.648,295.137L1566.85,562.659a25.231,25.231,0,0,1,11.3,29.255l-126.94,415.7L1317.4,1421.44a24.746,24.746,0,0,1-10.539,13.5l-421.712,258.6A23.527,23.527,0,0,1,872.875,1697.025Zm-222.408-833.6a23.833,23.833,0,0,1,19.47,10.252L754.878,994.53a25.547,25.547,0,0,1,4.067,9.416l130.442,629.163,385.22-236.227,130.84-404.643,120.9-395.9-359.255-205.3a23.947,23.947,0,0,1-4.843-3.631L864.308,97.8,397.727,142.725,111.467,549.979,332.39,954.588l311.582-90.25A24.014,24.014,0,0,1,650.466,863.421Z" transform="translate(160.856 282.069)"/><g transform="translate(802.872 380.419)"><path class="b" d="M273.975,56.811,113.28,463.218a25.566,25.566,0,0,0,2.6,23.734l184.875,271L148.6,840l28.591,40.687L347.4,788.9a24.791,24.791,0,0,0,12.256-16.2,25.546,25.546,0,0,0-3.723-20.183L162.8,469.426,328.02,51.611Z" transform="translate(-111.489 -51.611)"/><path class="b" d="M557.287,198.518,192.025,263.58l-64.539-95.061,25.842,124.66,8.056,11.867a23.871,23.871,0,0,0,19.692,10.6,22.46,22.46,0,0,0,4.089-.378L570.53,246.639a23.526,23.526,0,0,0,9.32-3.86l15.337-10.641,24.978-77.249Z" transform="translate(49.782 1028.102)"/></g></g></svg>