<svg xmlns="http://www.w3.org/2000/svg" width="424" height="104.999" viewBox="0 0 424 104.999"><defs><style>.a{fill:#cfd7da;}.b{fill:#607380;}.c{fill:#ff5200;}</style></defs><g transform="translate(-42.911 -20.16)"><g transform="translate(163.02 56.17)"><g transform="translate(0.096)"><path class="a" d="M263.617,89.7V88.528a1.759,1.759,0,0,0-3.518,0v1.759c0,.414,0,.414.1.587l4.967,8.761a3.044,3.044,0,0,1,.655,2.173v1.725a3.966,3.966,0,0,1-7.933,0v-1.173a.567.567,0,0,1,.551-.552h1.1a.567.567,0,0,1,.552.552v1.173a1.759,1.759,0,1,0,3.518,0v-1.725c0-.379,0-.379-.1-.551l-4.966-8.761a3.081,3.081,0,0,1-.655-2.208V88.528a3.966,3.966,0,0,1,7.933,0V89.7a.545.545,0,0,1-.552.552h-1.1A.544.544,0,0,1,263.617,89.7Z" transform="translate(-257.891 -84.562)"/><path class="a" d="M284.17,85.114v1.1a.545.545,0,0,1-.552.552h-1.552v20.177a.545.545,0,0,1-.552.552h-1.1a.544.544,0,0,1-.551-.552V86.77h-1.553a.545.545,0,0,1-.552-.552v-1.1a.567.567,0,0,1,.552-.552h5.312A.567.567,0,0,1,284.17,85.114Z" transform="translate(-266.648 -84.562)"/><path class="a" d="M305,93.15a3.9,3.9,0,0,1-1.208,2.863A3.978,3.978,0,0,1,305,98.91v8.036a.545.545,0,0,1-.552.552h-1.1a.544.544,0,0,1-.551-.552V98.91a1.774,1.774,0,0,0-1.759-1.794h-1.759v9.83a.567.567,0,0,1-.552.552h-1.1a.545.545,0,0,1-.552-.552V85.666a1.111,1.111,0,0,1,1.1-1.1h2.863a3.974,3.974,0,0,1,3.967,4Zm-2.207-4.587a1.774,1.774,0,0,0-1.759-1.793h-1.759v8.139h1.759a1.767,1.767,0,0,0,1.759-1.759Z" transform="translate(-275.16 -84.562)"/><path class="a" d="M327.977,88.563v18.384a.544.544,0,0,1-.552.552h-1.1a.545.545,0,0,1-.552-.552v-9.83h-3.552v9.83a.545.545,0,0,1-.552.552h-1.1a.567.567,0,0,1-.552-.552V88.563a3.984,3.984,0,1,1,7.967,0Zm-2.207,0a1.776,1.776,0,1,0-3.552,0v6.346h3.552Z" transform="translate(-285.276 -84.562)"/><path class="a" d="M346.967,85.114v1.1a.545.545,0,0,1-.552.552h-1.553v20.177a.544.544,0,0,1-.551.552h-1.1a.545.545,0,0,1-.552-.552V86.77H341.1a.545.545,0,0,1-.552-.552v-1.1a.567.567,0,0,1,.552-.552h5.312A.567.567,0,0,1,346.967,85.114Z" transform="translate(-294.332 -84.562)"/><path class="a" d="M362.375,86.77v8.174h3a.545.545,0,0,1,.551.552v1.1a.567.567,0,0,1-.551.552h-3v8.139h3a.567.567,0,0,1,.551.552v1.1a.544.544,0,0,1-.551.552h-4.1a1.089,1.089,0,0,1-1.1-1.1V85.666a1.111,1.111,0,0,1,1.1-1.1h4.1a.567.567,0,0,1,.551.552v1.1a.545.545,0,0,1-.551.552Z" transform="translate(-302.98 -84.562)"/><path class="a" d="M384.954,89.7V88.528a1.759,1.759,0,0,0-3.518,0v15a1.759,1.759,0,0,0,3.518,0v-6.45h-1.207a.546.546,0,0,1-.552-.552v-1.1a.545.545,0,0,1,.552-.551h2.862a.544.544,0,0,1,.552.551v8.106a3.967,3.967,0,0,1-7.933,0v-15a3.967,3.967,0,0,1,7.933,0V89.7a.545.545,0,0,1-.552.552h-1.1A.545.545,0,0,1,384.954,89.7Z" transform="translate(-311.383 -84.562)"/><path class="a" d="M404.382,106.946a.544.544,0,0,1-.552.552h-1.1a.545.545,0,0,1-.552-.552V85.114a.568.568,0,0,1,.552-.552h1.1a.567.567,0,0,1,.552.552Z" transform="translate(-321.499 -84.562)"/><path class="a" d="M420.608,89.7V88.528a1.759,1.759,0,0,0-3.518,0v15a1.759,1.759,0,0,0,3.518,0v-1.277a.545.545,0,0,1,.552-.552h1.1a.544.544,0,0,1,.551.552v1.277a3.966,3.966,0,0,1-7.933,0v-15a3.966,3.966,0,0,1,7.933,0V89.7a.545.545,0,0,1-.551.552h-1.1A.545.545,0,0,1,420.608,89.7Z" transform="translate(-327.101 -84.562)"/><path class="a" d="M451.942,106.946a.544.544,0,0,1-.552.552h-1.1a.545.545,0,0,1-.552-.552V85.114a.567.567,0,0,1,.552-.552h1.1a.567.567,0,0,1,.552.552Z" transform="translate(-342.466 -84.562)"/><path class="a" d="M470.409,88.563v18.384a.544.544,0,0,1-.552.552h-1.1a.545.545,0,0,1-.552-.552V88.563a1.776,1.776,0,1,0-3.552,0v18.384a.544.544,0,0,1-.552.552h-1.1a.545.545,0,0,1-.552-.552V88.563a3.984,3.984,0,1,1,7.967,0Z" transform="translate(-348.068 -84.562)"/><path class="a" d="M490.56,89.7V88.528a1.759,1.759,0,0,0-3.518,0v1.759c0,.414,0,.414.1.587l4.967,8.761a3.046,3.046,0,0,1,.655,2.173v1.725a3.967,3.967,0,0,1-7.933,0v-1.173a.568.568,0,0,1,.552-.552h1.1a.567.567,0,0,1,.551.552v1.173a1.759,1.759,0,1,0,3.518,0v-1.725c0-.379,0-.379-.1-.551l-4.966-8.761a3.079,3.079,0,0,1-.656-2.208V88.528a3.967,3.967,0,0,1,7.933,0V89.7a.545.545,0,0,1-.552.552h-1.1A.545.545,0,0,1,490.56,89.7Z" transform="translate(-357.94 -84.562)"/><path class="a" d="M515.133,85.114v18.418a3.984,3.984,0,0,1-7.968,0V85.114a.594.594,0,0,1,.552-.552h1.1a.567.567,0,0,1,.551.552v18.418a1.776,1.776,0,0,0,3.553,0V85.114a.567.567,0,0,1,.552-.552h1.1A.567.567,0,0,1,515.133,85.114Z" transform="translate(-367.785 -84.562)"/><path class="a" d="M537.8,93.15a3.9,3.9,0,0,1-1.207,2.863,3.978,3.978,0,0,1,1.207,2.9v8.036a.544.544,0,0,1-.551.552h-1.1a.544.544,0,0,1-.551-.552V98.91a1.774,1.774,0,0,0-1.759-1.794h-1.759v9.83a.567.567,0,0,1-.552.552h-1.1a.544.544,0,0,1-.551-.552V85.666a1.111,1.111,0,0,1,1.1-1.1h2.863a3.974,3.974,0,0,1,3.966,4Zm-2.207-4.587a1.774,1.774,0,0,0-1.759-1.793h-1.759v8.139h1.759a1.767,1.767,0,0,0,1.759-1.759Z" transform="translate(-377.792 -84.562)"/><path class="a" d="M560.781,88.563v18.384a.544.544,0,0,1-.552.552h-1.1a.545.545,0,0,1-.552-.552v-9.83h-3.552v9.83a.544.544,0,0,1-.552.552h-1.1a.567.567,0,0,1-.552-.552V88.563a3.984,3.984,0,1,1,7.967,0Zm-2.208,0a1.776,1.776,0,1,0-3.552,0v6.346h3.552Z" transform="translate(-387.909 -84.562)"/><path class="a" d="M583.789,88.563v18.384a.544.544,0,0,1-.551.552h-1.1a.545.545,0,0,1-.552-.552V88.563a1.777,1.777,0,1,0-3.553,0v18.384a.544.544,0,0,1-.552.552h-1.1a.545.545,0,0,1-.552-.552V88.563a3.984,3.984,0,1,1,7.967,0Z" transform="translate(-398.052 -84.562)"/><path class="a" d="M604.558,89.7V88.528a1.759,1.759,0,0,0-3.518,0v15a1.759,1.759,0,0,0,3.518,0v-1.277a.545.545,0,0,1,.551-.552h1.1a.545.545,0,0,1,.552.552v1.277a3.967,3.967,0,0,1-7.933,0v-15a3.967,3.967,0,0,1,7.933,0V89.7a.545.545,0,0,1-.552.552h-1.1A.545.545,0,0,1,604.558,89.7Z" transform="translate(-408.196 -84.562)"/><path class="a" d="M623.37,86.77v8.174h3a.544.544,0,0,1,.551.552v1.1a.567.567,0,0,1-.551.552h-3v8.139h3a.567.567,0,0,1,.551.552v1.1a.544.544,0,0,1-.551.552h-4.1a1.089,1.089,0,0,1-1.1-1.1V85.666a1.111,1.111,0,0,1,1.1-1.1h4.1a.567.567,0,0,1,.551.552v1.1a.544.544,0,0,1-.551.552Z" transform="translate(-418.041 -84.562)"/><path class="a" d="M657.854,89.7V88.528a1.759,1.759,0,0,0-3.518,0v1.759c0,.414,0,.414.1.587l4.967,8.761a3.046,3.046,0,0,1,.655,2.173v1.725a3.966,3.966,0,0,1-7.933,0v-1.173a.567.567,0,0,1,.552-.552h1.1a.567.567,0,0,1,.551.552v1.173a1.759,1.759,0,1,0,3.518,0v-1.725c0-.379,0-.379-.1-.551l-4.967-8.761a3.081,3.081,0,0,1-.655-2.208V88.528a3.966,3.966,0,0,1,7.933,0V89.7a.544.544,0,0,1-.551.552h-1.1A.545.545,0,0,1,657.854,89.7Z" transform="translate(-431.693 -84.562)"/><path class="a" d="M681.812,85.114V93.15a3.973,3.973,0,0,1-2.863,3.828v9.968a.567.567,0,0,1-.552.552h-1.1a.545.545,0,0,1-.551-.552V96.978a3.963,3.963,0,0,1-2.9-3.828V85.114a.567.567,0,0,1,.552-.552h1.1a.567.567,0,0,1,.552.552V93.15a1.777,1.777,0,0,0,3.553,0V85.114a.567.567,0,0,1,.552-.552h1.1A.567.567,0,0,1,681.812,85.114Z" transform="translate(-441.266 -84.562)"/><path class="a" d="M701.344,89.7V88.528a1.759,1.759,0,0,0-3.518,0v1.759c0,.414,0,.414.1.587l4.966,8.761a3.046,3.046,0,0,1,.655,2.173v1.725a3.966,3.966,0,0,1-7.933,0v-1.173a.567.567,0,0,1,.552-.552h1.1a.567.567,0,0,1,.552.552v1.173a1.759,1.759,0,1,0,3.518,0v-1.725c0-.379,0-.379-.1-.551l-4.967-8.761a3.081,3.081,0,0,1-.655-2.208V88.528a3.966,3.966,0,0,1,7.933,0V89.7a.544.544,0,0,1-.551.552h-1.1A.545.545,0,0,1,701.344,89.7Z" transform="translate(-450.865 -84.562)"/><path class="a" d="M721.9,85.114v1.1a.545.545,0,0,1-.552.552h-1.553v20.177a.544.544,0,0,1-.551.552h-1.1a.545.545,0,0,1-.552-.552V86.77h-1.552a.545.545,0,0,1-.552-.552v-1.1a.567.567,0,0,1,.552-.552h5.312A.568.568,0,0,1,721.9,85.114Z" transform="translate(-459.622 -84.562)"/><path class="a" d="M737.306,86.77v8.174h3a.544.544,0,0,1,.551.552v1.1a.567.567,0,0,1-.551.552h-3v8.139h3a.567.567,0,0,1,.551.552v1.1a.544.544,0,0,1-.551.552h-4.1a1.089,1.089,0,0,1-1.1-1.1V85.666a1.111,1.111,0,0,1,1.1-1.1h4.1a.567.567,0,0,1,.551.552v1.1a.544.544,0,0,1-.551.552Z" transform="translate(-468.27 -84.562)"/><path class="a" d="M767.887,88.563v18.384a.567.567,0,0,1-.552.552h-1.1a.545.545,0,0,1-.552-.552V88.563a1.776,1.776,0,1,0-3.552,0v18.384a.544.544,0,0,1-.552.552h-1.1a.545.545,0,0,1-.552-.552V88.563a1.776,1.776,0,1,0-3.553,0v18.384a.544.544,0,0,1-.551.552h-1.1a.567.567,0,0,1-.552-.552V88.563a193.9,193.9,0,0,0,9.727-4A4,4,0,0,1,767.887,88.563Z" transform="translate(-476.673 -84.562)"/><path class="a" d="M792.579,89.7V88.528a1.759,1.759,0,0,0-3.518,0v1.759c0,.414,0,.414.1.587l4.967,8.761a3.046,3.046,0,0,1,.655,2.173v1.725a3.967,3.967,0,0,1-7.933,0v-1.173a.568.568,0,0,1,.552-.552h1.1a.567.567,0,0,1,.551.552v1.173a1.759,1.759,0,1,0,3.518,0v-1.725c0-.379,0-.379-.1-.551l-4.966-8.761a3.079,3.079,0,0,1-.656-2.208V88.528a3.967,3.967,0,0,1,7.933,0V89.7a.545.545,0,0,1-.552.552h-1.1A.545.545,0,0,1,792.579,89.7Z" transform="translate(-491.086 -84.562)"/></g><g transform="translate(36.835 44.016)"><path class="a" d="M324.145,170.4c0,1.3.587,2.176,2.033,2.176a1.931,1.931,0,0,0,2.032-2.176v-6.84h.547V170.3a2.4,2.4,0,0,1-2.58,2.724c-1.29,0-2.58-.5-2.58-2.724v-6.736h.547Z" transform="translate(-323.598 -163.406)"/><path class="a" d="M345.348,163.562l4.052,8.443h.026v-8.443h.547v9.3h-.717l-4.065-8.443h-.026v8.443h-.547v-9.3Z" transform="translate(-332.865 -163.406)"/><path class="a" d="M366.2,163.562h2.124c1.968,0,3.348.834,3.348,4.652s-1.589,4.652-3.348,4.652H366.2Zm2.124,8.86c1.981,0,2.8-1.355,2.8-4.208s-.664-4.208-2.8-4.208h-1.576v8.416Z" transform="translate(-342.378 -163.406)"/><path class="a" d="M387.615,163.562h4.442v.5h-3.895v3.713H391.8v.495h-3.634v4.1h4.013v.5h-4.56Z" transform="translate(-351.82 -163.406)"/><path class="a" d="M406.864,163.562h2.724A2.173,2.173,0,0,1,411.893,166a2.1,2.1,0,0,1-1.864,2.306v.026c1.525.091,1.8,1.029,1.8,2.306v.977a2.134,2.134,0,0,0,.312,1.251h-.625a2.863,2.863,0,0,1-.234-1.264v-.951c0-1.329-.365-2.1-1.864-2.1h-2.006v4.313h-.547Zm2.293,4.547a1.908,1.908,0,0,0,2.19-2.11,1.771,1.771,0,0,0-1.838-1.993h-2.1v4.1Z" transform="translate(-360.306 -163.406)"/><path class="a" d="M431.128,164.344H431.1l-1.759,8.521h-.652l-2.02-9.3h.548L429,172.083h.026l1.746-8.521h.665l1.759,8.521h.026l1.784-8.521h.548l-2.033,9.3h-.677Z" transform="translate(-369.039 -163.406)"/><path class="a" d="M453.565,163.562h2.723A2.173,2.173,0,0,1,458.594,166a2.1,2.1,0,0,1-1.863,2.306v.026c1.524.091,1.8,1.029,1.8,2.306v.977a2.134,2.134,0,0,0,.313,1.251h-.625a2.862,2.862,0,0,1-.235-1.264v-.951c0-1.329-.365-2.1-1.863-2.1h-2.006v4.313h-.547Zm2.293,4.547a1.908,1.908,0,0,0,2.189-2.11,1.771,1.771,0,0,0-1.837-1.993h-2.1v4.1Z" transform="translate(-380.894 -163.406)"/><path class="a" d="M474.54,163.562h.547v9.3h-.547Z" transform="translate(-390.141 -163.406)"/><path class="a" d="M488.784,164.057h-2.475v-.5h5.5v.5h-2.475v8.808h-.547Z" transform="translate(-395.33 -163.406)"/><path class="a" d="M506.931,163.562h.547v9.3h-.547Z" transform="translate(-404.421 -163.406)"/><path class="a" d="M520.641,163.562l4.052,8.443h.026v-8.443h.547v9.3h-.717l-4.065-8.443h-.026v8.443h-.547v-9.3Z" transform="translate(-410.143 -163.406)"/><path class="a" d="M546.284,170.866h-.026a2.387,2.387,0,0,1-2.45,2.033c-2.033,0-2.853-1.785-2.853-4.8,0-2.918.821-4.82,2.984-4.82a2.6,2.6,0,0,1,2.606,2.827H546a2.113,2.113,0,0,0-2.033-2.384c-1.85,0-2.463,1.733-2.463,4.352,0,2.5.508,4.378,2.385,4.378,1.759,0,2.293-1.707,2.293-3.349v-.573h-2.554v-.443h3.1v4.652h-.442Z" transform="translate(-419.421 -163.283)"/><path class="a" d="M584.147,164.266h-.026l-2.67,8.6H580.9l-2.671-8.6h-.026v8.6h-.547v-9.3h.886l2.645,8.365h.026l2.579-8.365h.9v9.3h-.547Z" transform="translate(-435.602 -163.406)"/><path class="a" d="M605.669,169.973h-3.5l-.886,2.892h-.547l2.893-9.3h.69l2.788,9.3h-.547Zm-1.707-5.863h-.026l-1.642,5.42h3.27Z" transform="translate(-445.773 -163.406)"/><path class="a" d="M623.343,163.562l4.052,8.443h.026v-8.443h.547v9.3h-.716l-4.065-8.443h-.026v8.443h-.547v-9.3Z" transform="translate(-455.42 -163.406)"/><path class="a" d="M647.616,169.973h-3.5l-.886,2.892h-.547l2.893-9.3h.69l2.789,9.3H648.5Zm-1.707-5.863h-.026l-1.642,5.42h3.27Z" transform="translate(-464.266 -163.406)"/><path class="a" d="M669.516,170.866h-.026a2.387,2.387,0,0,1-2.45,2.033c-2.032,0-2.853-1.785-2.853-4.8,0-2.918.821-4.82,2.984-4.82a2.6,2.6,0,0,1,2.606,2.827h-.547a2.113,2.113,0,0,0-2.032-2.384c-1.85,0-2.462,1.733-2.462,4.352,0,2.5.507,4.378,2.384,4.378,1.759,0,2.293-1.707,2.293-3.349v-.573h-2.554v-.443h3.1v4.652h-.442Z" transform="translate(-473.748 -163.283)"/><path class="a" d="M686.14,163.562h4.442v.5h-3.9v3.713h3.634v.495h-3.634v4.1H690.7v.5h-4.56Z" transform="translate(-483.426 -163.406)"/><path class="a" d="M705.389,163.562h2.724A2.173,2.173,0,0,1,710.418,166a2.1,2.1,0,0,1-1.863,2.306v.026c1.524.091,1.8,1.029,1.8,2.306v.977a2.134,2.134,0,0,0,.312,1.251h-.625a2.861,2.861,0,0,1-.235-1.264v-.951c0-1.329-.365-2.1-1.863-2.1h-2.006v4.313h-.547Zm2.293,4.547a1.908,1.908,0,0,0,2.19-2.11,1.771,1.771,0,0,0-1.838-1.993h-2.1v4.1Z" transform="translate(-491.912 -163.406)"/><path class="a" d="M726.3,170.357a1.986,1.986,0,0,0,2.111,2.1,2.057,2.057,0,0,0,2.15-2.111c0-1.212-.651-1.628-1.694-1.993l-1.055-.365c-1.224-.417-1.889-1.016-1.889-2.28a2.315,2.315,0,0,1,2.489-2.423,2.246,2.246,0,0,1,2.489,2.527h-.547c0-1.251-.574-2.084-1.889-2.084a1.779,1.779,0,0,0-1.993,1.928,1.75,1.75,0,0,0,1.368,1.8l1.381.482a2.29,2.29,0,0,1,1.889,2.371,2.523,2.523,0,0,1-2.7,2.593,2.372,2.372,0,0,1-2.658-2.411v-.612h.547Z" transform="translate(-500.891 -163.283)"/></g><g transform="translate(0 32.651)"><path class="a" d="M561.119,142.957a.486.486,0,0,1,.492.491v.982a.485.485,0,0,1-.492.49H258.212a.5.5,0,0,1-.492-.49v-.982a.506.506,0,0,1,.492-.491Z" transform="translate(-257.72 -142.957)"/></g></g><g transform="translate(42.911 20.16)"><path class="a" d="M92.9,125.159a1.3,1.3,0,0,1-.4-.064l-30.1-9.778a1.3,1.3,0,0,1-.648-.471l-18.6-25.6a1.3,1.3,0,0,1-.248-.762V56.837a1.3,1.3,0,0,1,.248-.762l18.6-25.6A1.293,1.293,0,0,1,62.408,30l30.1-9.779a1.3,1.3,0,0,1,.8,0L123.4,30a1.3,1.3,0,0,1,.648.471l18.6,25.6a1.3,1.3,0,0,1,.248.762V88.482a1.3,1.3,0,0,1-.248.762l-18.6,25.6a1.3,1.3,0,0,1-.648.471l-30.1,9.778A1.3,1.3,0,0,1,92.9,125.159ZM63.611,112.98,92.9,122.5,122.2,112.98l18.1-24.919v-30.8L122.2,32.339,92.9,22.82,63.611,32.339,45.505,57.259v30.8Z" transform="translate(-42.911 -20.16)"/><path class="b" d="M115.9,139.939l-9.959-14.192,4.237-2.21a15.613,15.613,0,0,1-2.2-1.593l-4.392,2.291a1.215,1.215,0,0,0-.432,1.774l12.717,18.122A9.72,9.72,0,0,1,115.9,139.939Z" transform="translate(-69.373 -65.031)"/><path class="b" d="M172.747,68.019l-21.977-16.1a1.2,1.2,0,0,0-.192-.115L130.133,42a1.215,1.215,0,0,0-1.649.635l-1.623,3.971.068,0a15.656,15.656,0,0,1,2.469.213l.847-2.071,19.182,9.2,21.325,15.618-2.517,24.65-15.386,10.329a9.638,9.638,0,0,1-.363,3.169l17.576-11.8a1.215,1.215,0,0,0,.531-.885l2.646-25.909A1.212,1.212,0,0,0,172.747,68.019Z" transform="translate(-79.921 -29.735)"/><path class="c" d="M99.939,127.678a1.216,1.216,0,0,1-1.187-.96L91.87,94.606,88.231,89.6,72.406,94.031a1.214,1.214,0,0,1-1.385-.572l-12-21.259a1.215,1.215,0,0,1,.075-1.31L74.323,49.935a1.214,1.214,0,0,1,.869-.5l24.634-2.294a1.214,1.214,0,0,1,.944.324l15.321,14.407,18.863,10.429a1.214,1.214,0,0,1,.57,1.428L129.12,94.025l-6.752,20.2a1.215,1.215,0,0,1-.532.659l-21.278,12.623A1.217,1.217,0,0,1,99.939,127.678ZM88.717,86.987a1.215,1.215,0,0,1,.982.5l4.286,5.9a1.227,1.227,0,0,1,.205.46l6.582,30.712,19.437-11.531,6.6-19.752,6.1-19.326L114.784,63.927a1.207,1.207,0,0,1-.244-.177L99.507,49.613,75.964,51.806,61.52,71.686,72.668,91.437l15.721-4.406A1.25,1.25,0,0,1,88.717,86.987Z" transform="translate(-49.945 -32.054)"/><g transform="translate(38.345 17.586)"><path class="a" d="M119.688,51.865,111.58,71.7a1.213,1.213,0,0,0,.131,1.159l9.328,13.229L113.362,90.1l1.443,1.986,8.588-4.48a1.214,1.214,0,0,0,.431-1.776l-9.745-13.819,8.336-20.4Z" transform="translate(-111.489 -51.611)"/><path class="a" d="M149.172,157.018l-18.43,3.176-3.256-4.64,1.3,6.085.407.579a1.216,1.216,0,0,0,.994.517,1.17,1.17,0,0,0,.206-.018l19.444-3.35a1.209,1.209,0,0,0,.47-.188l.774-.519,1.26-3.771Z" transform="translate(-118.542 -97.141)"/></g></g></g></svg>