<svg xmlns="http://www.w3.org/2000/svg" width="367.469" height="91" viewBox="0 0 367.469 91"><defs><style>.a{fill:#1a2a36;}.b{fill:#607380;}.c{fill:#ff5200;}.d{fill:#cfd7da;}</style></defs><g transform="translate(-42.911 -20.16)"><g transform="translate(147.007 51.369)"><g transform="translate(0.083)"><path class="a" d="M262.853,89.016V88a1.525,1.525,0,0,0-3.049,0v1.525c0,.359,0,.359.089.508l4.3,7.593a2.638,2.638,0,0,1,.568,1.883V101a3.437,3.437,0,0,1-6.875,0V99.986a.491.491,0,0,1,.478-.478h.957a.492.492,0,0,1,.479.478V101a1.525,1.525,0,1,0,3.049,0V99.508c0-.329,0-.329-.09-.478l-4.3-7.593a2.67,2.67,0,0,1-.568-1.913V88a3.437,3.437,0,0,1,6.875,0v1.017a.472.472,0,0,1-.478.478h-.957A.472.472,0,0,1,262.853,89.016Z" transform="translate(-257.891 -84.562)"/><path class="a" d="M283.314,85.04V86a.472.472,0,0,1-.478.478h-1.345v17.487a.472.472,0,0,1-.478.478h-.957a.472.472,0,0,1-.478-.478V86.475h-1.346a.472.472,0,0,1-.478-.478V85.04a.492.492,0,0,1,.478-.478h4.6A.492.492,0,0,1,283.314,85.04Z" transform="translate(-268.128 -84.562)"/><path class="a" d="M303.937,92a3.379,3.379,0,0,1-1.047,2.481A3.447,3.447,0,0,1,303.937,97v6.965a.472.472,0,0,1-.479.478H302.5a.472.472,0,0,1-.478-.478V97a1.538,1.538,0,0,0-1.525-1.555h-1.525v8.519a.492.492,0,0,1-.478.478h-.957a.472.472,0,0,1-.478-.478V85.519a.963.963,0,0,1,.957-.957H300.5a3.444,3.444,0,0,1,3.438,3.467Zm-1.913-3.976a1.538,1.538,0,0,0-1.525-1.554h-1.525v7.054H300.5A1.531,1.531,0,0,0,302.024,92Z" transform="translate(-278.08 -84.562)"/><path class="a" d="M326.915,88.029v15.933a.472.472,0,0,1-.478.478h-.957a.472.472,0,0,1-.478-.478V95.443h-3.079v8.519a.472.472,0,0,1-.478.478h-.957a.491.491,0,0,1-.478-.478V88.029a3.453,3.453,0,1,1,6.9,0Zm-1.913,0a1.539,1.539,0,1,0-3.079,0v5.5H325Z" transform="translate(-289.907 -84.562)"/><path class="a" d="M346.111,85.04V86a.472.472,0,0,1-.478.478h-1.346v17.487a.472.472,0,0,1-.478.478h-.957a.472.472,0,0,1-.478-.478V86.475h-1.345a.472.472,0,0,1-.478-.478V85.04a.492.492,0,0,1,.478-.478h4.6A.492.492,0,0,1,346.111,85.04Z" transform="translate(-300.494 -84.562)"/><path class="a" d="M362.081,86.475v7.084h2.6a.472.472,0,0,1,.478.478v.957a.492.492,0,0,1-.478.478h-2.6v7.054h2.6a.492.492,0,0,1,.478.479v.956a.472.472,0,0,1-.478.478h-3.557a.944.944,0,0,1-.957-.957V85.519a.963.963,0,0,1,.957-.957h3.557a.491.491,0,0,1,.478.478V86a.472.472,0,0,1-.478.478Z" transform="translate(-310.605 -84.562)"/><path class="a" d="M384.19,89.016V88a1.525,1.525,0,0,0-3.049,0v13a1.525,1.525,0,0,0,3.049,0v-5.59h-1.046a.473.473,0,0,1-.479-.479v-.957a.472.472,0,0,1,.479-.478h2.481a.472.472,0,0,1,.478.478V101a3.438,3.438,0,0,1-6.875,0V88a3.438,3.438,0,0,1,6.875,0v1.017a.472.472,0,0,1-.478.478h-.957A.473.473,0,0,1,384.19,89.016Z" transform="translate(-320.429 -84.562)"/><path class="a" d="M404.088,103.962a.472.472,0,0,1-.478.478h-.956a.472.472,0,0,1-.479-.478V85.04a.492.492,0,0,1,.479-.478h.956a.491.491,0,0,1,.478.478Z" transform="translate(-332.256 -84.562)"/><path class="a" d="M419.844,89.016V88a1.525,1.525,0,0,0-3.049,0v13a1.525,1.525,0,0,0,3.049,0V99.9a.472.472,0,0,1,.478-.478h.957a.472.472,0,0,1,.478.478V101a3.437,3.437,0,0,1-6.875,0V88a3.437,3.437,0,0,1,6.875,0v1.017a.472.472,0,0,1-.478.478h-.957A.472.472,0,0,1,419.844,89.016Z" transform="translate(-338.805 -84.562)"/><path class="a" d="M451.648,103.962a.472.472,0,0,1-.478.478h-.956a.472.472,0,0,1-.479-.478V85.04a.492.492,0,0,1,.479-.478h.956a.491.491,0,0,1,.478.478Z" transform="translate(-356.768 -84.562)"/><path class="a" d="M469.347,88.029v15.933a.472.472,0,0,1-.478.478h-.956a.472.472,0,0,1-.479-.478V88.029a1.539,1.539,0,1,0-3.079,0v15.933a.472.472,0,0,1-.478.478h-.956a.472.472,0,0,1-.479-.478V88.029a3.453,3.453,0,1,1,6.9,0Z" transform="translate(-363.317 -84.562)"/><path class="a" d="M489.8,89.016V88a1.525,1.525,0,0,0-3.049,0v1.525c0,.359,0,.359.09.508l4.3,7.593a2.64,2.64,0,0,1,.567,1.883V101a3.438,3.438,0,0,1-6.875,0V99.986a.492.492,0,0,1,.479-.478h.957a.491.491,0,0,1,.478.478V101a1.525,1.525,0,1,0,3.049,0V99.508c0-.329,0-.329-.09-.478l-4.3-7.593a2.669,2.669,0,0,1-.568-1.913V88a3.438,3.438,0,0,1,6.875,0v1.017a.472.472,0,0,1-.478.478h-.956A.473.473,0,0,1,489.8,89.016Z" transform="translate(-374.858 -84.562)"/><path class="a" d="M514.07,85.04V101a3.453,3.453,0,0,1-6.905,0V85.04a.514.514,0,0,1,.479-.478h.957a.491.491,0,0,1,.478.478V101a1.54,1.54,0,0,0,3.079,0V85.04a.492.492,0,0,1,.479-.478h.956A.492.492,0,0,1,514.07,85.04Z" transform="translate(-386.368 -84.562)"/><path class="a" d="M536.741,92a3.379,3.379,0,0,1-1.046,2.481A3.447,3.447,0,0,1,536.741,97v6.965a.472.472,0,0,1-.478.478h-.957a.472.472,0,0,1-.478-.478V97a1.538,1.538,0,0,0-1.525-1.555h-1.525v8.519a.491.491,0,0,1-.478.478h-.957a.472.472,0,0,1-.478-.478V85.519a.963.963,0,0,1,.956-.957H533.3a3.444,3.444,0,0,1,3.437,3.467Zm-1.913-3.976a1.538,1.538,0,0,0-1.525-1.554h-1.525v7.054H533.3A1.531,1.531,0,0,0,534.828,92Z" transform="translate(-398.068 -84.562)"/><path class="a" d="M559.719,88.029v15.933a.472.472,0,0,1-.478.478h-.956a.472.472,0,0,1-.479-.478V95.443h-3.079v8.519a.472.472,0,0,1-.478.478h-.956a.492.492,0,0,1-.479-.478V88.029a3.453,3.453,0,1,1,6.9,0Zm-1.913,0a1.539,1.539,0,1,0-3.079,0v5.5h3.079Z" transform="translate(-409.896 -84.562)"/><path class="a" d="M582.727,88.029v15.933a.472.472,0,0,1-.478.478h-.956a.472.472,0,0,1-.479-.478V88.029a1.54,1.54,0,1,0-3.079,0v15.933a.472.472,0,0,1-.478.478H576.3a.472.472,0,0,1-.479-.478V88.029a3.453,3.453,0,1,1,6.905,0Z" transform="translate(-421.754 -84.562)"/><path class="a" d="M603.794,89.016V88a1.525,1.525,0,0,0-3.049,0v13a1.525,1.525,0,0,0,3.049,0V99.9a.472.472,0,0,1,.478-.478h.957a.472.472,0,0,1,.478.478V101a3.438,3.438,0,0,1-6.875,0V88a3.438,3.438,0,0,1,6.875,0v1.017a.472.472,0,0,1-.478.478h-.957A.472.472,0,0,1,603.794,89.016Z" transform="translate(-433.613 -84.562)"/><path class="a" d="M623.076,86.475v7.084h2.6a.472.472,0,0,1,.478.478v.957a.491.491,0,0,1-.478.478h-2.6v7.054h2.6a.491.491,0,0,1,.478.479v.956a.472.472,0,0,1-.478.478H622.12a.944.944,0,0,1-.957-.957V85.519a.963.963,0,0,1,.957-.957h3.557a.491.491,0,0,1,.478.478V86a.472.472,0,0,1-.478.478Z" transform="translate(-445.123 -84.562)"/><path class="a" d="M657.091,89.016V88a1.525,1.525,0,0,0-3.049,0v1.525c0,.359,0,.359.09.508l4.3,7.593A2.64,2.64,0,0,1,659,99.508V101a3.437,3.437,0,0,1-6.875,0V99.986a.492.492,0,0,1,.479-.478h.956a.491.491,0,0,1,.478.478V101a1.525,1.525,0,1,0,3.049,0V99.508c0-.329,0-.329-.089-.478l-4.3-7.593a2.67,2.67,0,0,1-.568-1.913V88A3.437,3.437,0,0,1,659,88v1.017a.472.472,0,0,1-.478.478h-.957A.473.473,0,0,1,657.091,89.016Z" transform="translate(-461.083 -84.562)"/><path class="a" d="M680.75,85.04V92a3.443,3.443,0,0,1-2.481,3.318v8.639a.491.491,0,0,1-.478.478h-.957a.472.472,0,0,1-.478-.478V95.323A3.434,3.434,0,0,1,673.844,92V85.04a.492.492,0,0,1,.479-.478h.956a.492.492,0,0,1,.478.478V92a1.54,1.54,0,0,0,3.079,0V85.04a.491.491,0,0,1,.478-.478h.956A.492.492,0,0,1,680.75,85.04Z" transform="translate(-472.275 -84.562)"/><path class="a" d="M700.58,89.016V88a1.525,1.525,0,0,0-3.049,0v1.525c0,.359,0,.359.09.508l4.3,7.593a2.64,2.64,0,0,1,.567,1.883V101a3.437,3.437,0,0,1-6.875,0V99.986a.492.492,0,0,1,.479-.478h.956a.491.491,0,0,1,.478.478V101a1.525,1.525,0,1,0,3.049,0V99.508c0-.329,0-.329-.09-.478l-4.3-7.593a2.67,2.67,0,0,1-.568-1.913V88a3.437,3.437,0,0,1,6.875,0v1.017a.472.472,0,0,1-.478.478h-.956A.472.472,0,0,1,700.58,89.016Z" transform="translate(-483.497 -84.562)"/><path class="a" d="M721.042,85.04V86a.473.473,0,0,1-.478.478h-1.346v17.487a.472.472,0,0,1-.478.478h-.956a.472.472,0,0,1-.479-.478V86.475H715.96a.472.472,0,0,1-.478-.478V85.04a.492.492,0,0,1,.478-.478h4.6A.492.492,0,0,1,721.042,85.04Z" transform="translate(-493.735 -84.562)"/><path class="a" d="M737.012,86.475v7.084h2.6a.472.472,0,0,1,.478.478v.957a.491.491,0,0,1-.478.478h-2.6v7.054h2.6a.492.492,0,0,1,.478.479v.956a.472.472,0,0,1-.478.478h-3.557a.944.944,0,0,1-.957-.957V85.519a.963.963,0,0,1,.957-.957h3.557a.491.491,0,0,1,.478.478V86a.472.472,0,0,1-.478.478Z" transform="translate(-503.846 -84.562)"/><path class="a" d="M766.056,88.029v15.933a.491.491,0,0,1-.478.478h-.956a.472.472,0,0,1-.479-.478V88.029a1.539,1.539,0,1,0-3.079,0v15.933a.472.472,0,0,1-.478.478h-.956a.472.472,0,0,1-.479-.478V88.029a1.54,1.54,0,1,0-3.079,0v15.933a.472.472,0,0,1-.478.478h-.957a.492.492,0,0,1-.479-.478V88.029a167.971,167.971,0,0,0,8.43-3.467A3.47,3.47,0,0,1,766.056,88.029Z" transform="translate(-513.67 -84.562)"/><path class="a" d="M791.815,89.016V88a1.525,1.525,0,0,0-3.049,0v1.525c0,.359,0,.359.09.508l4.3,7.593a2.64,2.64,0,0,1,.568,1.883V101a3.438,3.438,0,0,1-6.875,0V99.986a.492.492,0,0,1,.479-.478h.957a.491.491,0,0,1,.478.478V101a1.525,1.525,0,1,0,3.049,0V99.508c0-.329,0-.329-.09-.478l-4.3-7.593a2.669,2.669,0,0,1-.568-1.913V88a3.438,3.438,0,0,1,6.875,0v1.017a.472.472,0,0,1-.478.478h-.956A.473.473,0,0,1,791.815,89.016Z" transform="translate(-530.52 -84.562)"/></g><g transform="translate(31.924 38.148)"><path class="a" d="M324.072,169.49c0,1.13.508,1.886,1.762,1.886a1.673,1.673,0,0,0,1.761-1.886v-5.928h.474V169.4a2.078,2.078,0,0,1-2.236,2.36c-1.118,0-2.236-.429-2.236-2.36v-5.838h.474Z" transform="translate(-323.598 -163.427)"/><path class="a" d="M345.251,163.562l3.512,7.317h.023v-7.317h.474v8.063h-.621l-3.523-7.317h-.023v7.317h-.474v-8.063Z" transform="translate(-334.432 -163.427)"/><path class="a" d="M366.2,163.562h1.841c1.705,0,2.9.723,2.9,4.031s-1.377,4.031-2.9,4.031H366.2Zm1.841,7.678c1.717,0,2.428-1.174,2.428-3.647s-.576-3.647-2.428-3.647h-1.366v7.294Z" transform="translate(-345.554 -163.427)"/><path class="a" d="M387.615,163.562h3.85v.429h-3.376v3.218h3.15v.429h-3.15V171.2h3.478v.429h-3.952Z" transform="translate(-356.593 -163.427)"/><path class="a" d="M406.864,163.562h2.36a1.883,1.883,0,0,1,2,2.112,1.822,1.822,0,0,1-1.615,2v.023c1.321.079,1.559.892,1.559,2v.847a1.849,1.849,0,0,0,.27,1.084H410.9a2.481,2.481,0,0,1-.2-1.1v-.824c0-1.152-.316-1.818-1.615-1.818h-1.739v3.738h-.474Zm1.987,3.941a1.654,1.654,0,0,0,1.9-1.829,1.535,1.535,0,0,0-1.593-1.728h-1.818V167.5Z" transform="translate(-366.514 -163.427)"/><path class="a" d="M430.534,164.24h-.022l-1.525,7.385h-.565l-1.75-8.063h.475l1.546,7.385h.023l1.513-7.385h.576l1.525,7.385h.023l1.546-7.385h.475l-1.762,8.063h-.587Z" transform="translate(-376.723 -163.427)"/><path class="a" d="M453.565,163.562h2.36a1.883,1.883,0,0,1,2,2.112,1.822,1.822,0,0,1-1.615,2v.023c1.321.079,1.558.892,1.558,2v.847a1.849,1.849,0,0,0,.271,1.084H457.6a2.48,2.48,0,0,1-.2-1.1v-.824c0-1.152-.316-1.818-1.615-1.818h-1.739v3.738h-.474Zm1.987,3.941a1.654,1.654,0,0,0,1.9-1.829,1.534,1.534,0,0,0-1.592-1.728h-1.818V167.5Z" transform="translate(-390.584 -163.427)"/><path class="a" d="M474.54,163.562h.474v8.063h-.474Z" transform="translate(-401.394 -163.427)"/><path class="a" d="M488.454,163.991h-2.145v-.429h4.765v.429h-2.145v7.633h-.474Z" transform="translate(-407.46 -163.427)"/><path class="a" d="M506.931,163.562h.474v8.063h-.474Z" transform="translate(-418.089 -163.427)"/><path class="a" d="M520.544,163.562l3.511,7.317h.023v-7.317h.474v8.063h-.621l-3.523-7.317h-.023v7.317h-.474v-8.063Z" transform="translate(-424.779 -163.427)"/><path class="a" d="M545.574,169.855h-.023a2.069,2.069,0,0,1-2.123,1.762c-1.761,0-2.473-1.547-2.473-4.156,0-2.529.711-4.178,2.586-4.178a2.254,2.254,0,0,1,2.259,2.45h-.474a1.831,1.831,0,0,0-1.761-2.066c-1.6,0-2.135,1.5-2.135,3.772,0,2.168.44,3.794,2.067,3.794,1.525,0,1.987-1.479,1.987-2.9v-.5H543.27v-.384h2.687v4.031h-.383Z" transform="translate(-435.625 -163.283)"/><path class="a" d="M583.282,164.172h-.023l-2.314,7.453h-.474l-2.314-7.453h-.023v7.453h-.474v-8.063h.768l2.292,7.25h.023l2.235-7.25h.779v8.063h-.474Z" transform="translate(-454.542 -163.427)"/><path class="a" d="M605.01,169.118h-3.037l-.768,2.507h-.474l2.507-8.063h.6l2.417,8.063h-.474Zm-1.479-5.081h-.023l-1.423,4.7h2.834Z" transform="translate(-466.433 -163.427)"/><path class="a" d="M623.245,163.562l3.512,7.317h.023v-7.317h.474v8.063h-.621l-3.523-7.317h-.023v7.317h-.474v-8.063Z" transform="translate(-477.712 -163.427)"/><path class="a" d="M646.957,169.118H643.92l-.768,2.507h-.474l2.507-8.063h.6l2.417,8.063h-.474Zm-1.479-5.081h-.023l-1.423,4.7h2.834Z" transform="translate(-488.053 -163.427)"/><path class="a" d="M668.806,169.855h-.023a2.069,2.069,0,0,1-2.123,1.762c-1.761,0-2.473-1.547-2.473-4.156,0-2.529.711-4.178,2.586-4.178a2.254,2.254,0,0,1,2.259,2.45h-.474a1.831,1.831,0,0,0-1.762-2.066c-1.6,0-2.134,1.5-2.134,3.772,0,2.168.44,3.794,2.066,3.794,1.525,0,1.987-1.479,1.987-2.9v-.5H666.5v-.384h2.687v4.031h-.383Z" transform="translate(-499.139 -163.283)"/><path class="a" d="M686.14,163.562h3.85v.429h-3.376v3.218h3.15v.429h-3.15V171.2h3.477v.429H686.14Z" transform="translate(-510.454 -163.427)"/><path class="a" d="M705.389,163.562h2.36a1.883,1.883,0,0,1,2,2.112,1.822,1.822,0,0,1-1.615,2v.023c1.321.079,1.558.892,1.558,2v.847a1.848,1.848,0,0,0,.27,1.084h-.542a2.48,2.48,0,0,1-.2-1.1v-.824c0-1.152-.316-1.818-1.615-1.818h-1.739v3.738h-.474Zm1.987,3.941a1.654,1.654,0,0,0,1.9-1.829,1.535,1.535,0,0,0-1.593-1.728h-1.818V167.5Z" transform="translate(-520.375 -163.427)"/><path class="a" d="M726.23,169.414a1.721,1.721,0,0,0,1.829,1.818,1.783,1.783,0,0,0,1.863-1.829c0-1.05-.565-1.411-1.468-1.728l-.914-.316c-1.061-.361-1.637-.881-1.637-1.976a2.007,2.007,0,0,1,2.157-2.1,1.946,1.946,0,0,1,2.157,2.19h-.474c0-1.084-.5-1.807-1.637-1.807a1.542,1.542,0,0,0-1.728,1.671,1.517,1.517,0,0,0,1.185,1.558l1.2.418a1.985,1.985,0,0,1,1.637,2.055,2.187,2.187,0,0,1-2.338,2.248,2.056,2.056,0,0,1-2.3-2.09V169h.474Z" transform="translate(-530.872 -163.283)"/></g><g transform="translate(0 28.298)"><path class="a" d="M520.668,142.957a.421.421,0,0,1,.426.426v.851a.42.42,0,0,1-.426.425H258.146a.437.437,0,0,1-.426-.425v-.851a.438.438,0,0,1,.426-.426Z" transform="translate(-257.72 -142.957)"/></g></g><g transform="translate(42.911 20.16)"><path class="a" d="M86.239,111.16a1.122,1.122,0,0,1-.347-.055L59.808,102.63a1.126,1.126,0,0,1-.562-.409L43.126,80.033a1.123,1.123,0,0,1-.215-.66V51.947a1.124,1.124,0,0,1,.215-.661L59.247,29.1a1.12,1.12,0,0,1,.562-.409l26.083-8.475a1.129,1.129,0,0,1,.7,0l26.083,8.475a1.122,1.122,0,0,1,.562.409l16.12,22.188a1.124,1.124,0,0,1,.215.661V79.373a1.123,1.123,0,0,1-.215.66l-16.12,22.188a1.128,1.128,0,0,1-.562.409L86.587,111.1A1.123,1.123,0,0,1,86.239,111.16ZM60.851,100.6l25.388,8.249,25.389-8.249,15.691-21.6v-26.7l-15.691-21.6-25.389-8.25-25.388,8.25L45.16,52.312v26.7Z" transform="translate(-42.911 -20.16)"/><path class="b" d="M114.169,137.539l-8.632-12.3,3.672-1.916a13.532,13.532,0,0,1-1.9-1.381l-3.807,1.985a1.053,1.053,0,0,0-.374,1.537l11.021,15.706A8.424,8.424,0,0,1,114.169,137.539Z" transform="translate(-73.848 -72.619)"/><path class="b" d="M166.629,64.534l-19.047-13.95a1.039,1.039,0,0,0-.167-.1l-17.719-8.5a1.053,1.053,0,0,0-1.429.551l-1.407,3.442h.059a13.569,13.569,0,0,1,2.139.185l.734-1.795,16.625,7.975L164.9,65.875l-2.182,21.364L149.384,96.19a8.353,8.353,0,0,1-.315,2.746L164.3,88.71a1.053,1.053,0,0,0,.46-.767l2.293-22.455A1.051,1.051,0,0,0,166.629,64.534Z" transform="translate(-86.179 -31.354)"/><path class="c" d="M94.463,116.94a1.054,1.054,0,0,1-1.028-.832L87.47,88.278l-3.154-4.341L70.6,87.779a1.052,1.052,0,0,1-1.2-.5L59,68.859a1.053,1.053,0,0,1,.065-1.135L72.262,49.562a1.052,1.052,0,0,1,.754-.429l21.35-1.988a1.053,1.053,0,0,1,.818.281l13.278,12.486L124.81,68.95a1.052,1.052,0,0,1,.494,1.238l-5.551,17.586L113.9,105.282a1.053,1.053,0,0,1-.461.571L95,116.793A1.055,1.055,0,0,1,94.463,116.94ZM84.737,81.674a1.053,1.053,0,0,1,.851.434L89.3,87.221a1.063,1.063,0,0,1,.178.4l5.7,26.617,16.846-9.994,5.722-17.119,5.287-16.749-15.71-8.685a1.045,1.045,0,0,1-.212-.154L94.088,49.284l-20.4,1.9L61.167,68.413l9.661,17.117,13.625-3.818A1.084,1.084,0,0,1,84.737,81.674Z" transform="translate(-51.134 -34.066)"/><g transform="translate(33.233 15.241)"><path class="d" d="M118.595,51.831l-7.027,17.193a1.052,1.052,0,0,0,.114,1l8.085,11.465-6.654,3.471,1.25,1.721,7.443-3.883a1.052,1.052,0,0,0,.373-1.539l-8.446-11.977,7.225-17.676Z" transform="translate(-111.489 -51.611)"/><path class="d" d="M146.281,156.734l-15.973,2.753-2.822-4.022,1.13,5.274.352.5a1.054,1.054,0,0,0,.861.448,1.013,1.013,0,0,0,.179-.016l16.852-2.9a1.048,1.048,0,0,0,.408-.163l.671-.45,1.092-3.268Z" transform="translate(-119.734 -104.84)"/></g></g></g></svg>