<svg xmlns="http://www.w3.org/2000/svg" width="150" height="150" viewBox="0 0 150 150"><defs><style>.a{fill:#d8dfe1;}.b{fill:#243746;}</style></defs><g transform="translate(-355 -3676)"><rect class="a" width="150" height="150" rx="20" transform="translate(355 3676)"/><g transform="translate(356.198 3703.5)"><path class="b" d="M69.626,90H25.7a1.143,1.143,0,0,1-.807-.333L10.333,75.111A1.143,1.143,0,0,1,10,74.3V6.14A1.14,1.14,0,0,1,11.14,5H69.626a1.14,1.14,0,0,1,1.14,1.14V17.929a1.14,1.14,0,1,1-2.28,0V7.28H12.28V73.829L26.172,87.72H68.491V56.486a1.14,1.14,0,0,1,2.28,0V88.86A1.147,1.147,0,0,1,69.626,90Z" transform="translate(26.855)"/><path class="b" d="M25.7,85.99a1.139,1.139,0,0,1-.807-.333L10.334,71.1a1.141,1.141,0,0,1,.807-1.947h14.58a1.137,1.137,0,0,1,1.14,1.14L26.839,84.85a1.141,1.141,0,0,1-.707,1.053A1.1,1.1,0,0,1,25.7,85.99ZM13.892,71.434,24.563,82.1l.013-10.667Z" transform="translate(26.855 4.01)"/><path class="b" d="M76.391,58.851a4.321,4.321,0,0,1-3.083-1.277L60.854,45.12a1.761,1.761,0,0,1,0-2.485l3.675-3.676a1.753,1.753,0,0,1,2.485,0L79.469,51.413a4.355,4.355,0,0,1-3.078,7.438ZM62.832,43.875l12.09,12.089a2.127,2.127,0,0,0,2.937,0,2.07,2.07,0,0,0,0-2.937L65.774,40.943Z" transform="translate(30.002 2.09)"/><path class="b" d="M62.185,44.31a1.143,1.143,0,0,1-.807-.333L58.6,41.2a1.142,1.142,0,1,1,1.614-1.614l1.974,1.975,1.264-1.263-1.975-1.975A1.142,1.142,0,0,1,63.088,36.7l2.782,2.782a1.145,1.145,0,0,1,0,1.614l-2.878,2.878A1.162,1.162,0,0,1,62.185,44.31Z" transform="translate(29.872 1.961)"/><path class="b" d="M51.654,46.07a16.311,16.311,0,1,1,11.529-4.779A16.183,16.183,0,0,1,51.654,46.07Zm0-30.335a14.029,14.029,0,1,0,9.919,4.109A13.93,13.93,0,0,0,51.654,15.735Z" transform="translate(28.44 0.529)"/><path class="b" d="M34.5,22.058H19.473a1.14,1.14,0,1,1,0-2.28H34.5a1.14,1.14,0,0,1,0,2.28Z" transform="translate(27.376 0.924)"/><path class="b" d="M32.424,31.715H19.473a1.14,1.14,0,0,1,0-2.28H32.424a1.14,1.14,0,0,1,0,2.28Z" transform="translate(27.376 1.527)"/><path class="b" d="M34.5,41.377H19.473a1.14,1.14,0,1,1,0-2.28H34.5a1.14,1.14,0,0,1,0,2.28Z" transform="translate(27.376 2.131)"/><path class="b" d="M60.242,51.038H19.473a1.14,1.14,0,1,1,0-2.28H60.242a1.14,1.14,0,0,1,0,2.28Z" transform="translate(27.376 2.735)"/><path class="b" d="M60.242,60.7H19.473a1.14,1.14,0,1,1,0-2.28H60.242a1.14,1.14,0,0,1,0,2.28Z" transform="translate(27.376 3.338)"/><path class="b" d="M59.307,70.357H34.5a1.14,1.14,0,0,1,0-2.28h24.8a1.14,1.14,0,0,1,0,2.28Z" transform="translate(28.316 3.942)"/></g></g></svg>