<svg xmlns="http://www.w3.org/2000/svg" width="125.333" height="125.331" viewBox="0 0 125.333 125.331"><defs><style>.a{fill:#243746;}.b{fill:#fff;}</style></defs><path class="a" d="M242.673,182.171a62.667,62.667,0,1,1-62.668-62.666,62.668,62.668,0,0,1,62.668,62.666" transform="translate(-117.34 -119.505)"/><path class="b" d="M150.236,135.364a5.726,5.726,0,0,0-4.394-2.02,6.294,6.294,0,0,0-6.166,6.541c0,3.917,3.11,6.559,7.41,10.216.638.543,3.152,2.708,3.152,2.708l1.635-1.417c5.6-4.847,8.926-7.387,8.926-11.507a6.294,6.294,0,0,0-6.166-6.541,5.734,5.734,0,0,0-4.4,2.02m7.018,4.52c0,2.107-1.913,3.814-6.19,7.52-.269.231-.545.472-.832.72l-.849-.723c-4.05-3.442-6.162-5.341-6.162-7.518a2.749,2.749,0,0,1,2.621-3c1.9,0,2.638,2.338,2.689,2.514l0,0c1.812,0,1.592,0,3.409,0V139.4c.051-.173.786-2.514,2.689-2.514a2.749,2.749,0,0,1,2.621,3" transform="translate(-88.411 -101.572)"/><path class="b" d="M147.759,154.113a7.085,7.085,0,1,0-7.085,7.085,7.093,7.093,0,0,0,7.085-7.085m-7.085,3.543a3.543,3.543,0,1,1,3.543-3.543,3.548,3.548,0,0,1-3.543,3.543" transform="translate(-96.253 -83.785)"/><path class="b" d="M191.723,169.659a12.591,12.591,0,0,0-12.517-12.515,12.372,12.372,0,0,0-5.914,1.5,12.4,12.4,0,0,0-23.6,0,12.358,12.358,0,0,0-5.914-1.5,12.589,12.589,0,0,0-12.515,12.515v1.773h60.457Zm-42.627-7.2v5.432H134.989a9.129,9.129,0,0,1,8.792-7.2,8.856,8.856,0,0,1,5.315,1.773m21.254,5.432H152.637v-5.432a8.857,8.857,0,0,1,17.713,0Zm3.543,0v-5.432a8.844,8.844,0,0,1,5.313-1.773,9.125,9.125,0,0,1,8.792,7.2Z" transform="translate(-99.657 -79.935)"/><path class="b" d="M162.908,154.113a7.085,7.085,0,1,0-7.085,7.085,7.093,7.093,0,0,0,7.085-7.085m-7.085,3.543a3.543,3.543,0,1,1,3.543-3.543,3.548,3.548,0,0,1-3.543,3.543" transform="translate(-76.592 -83.785)"/><path class="b" d="M158.118,151.341a8.857,8.857,0,1,0-8.858,8.856,8.867,8.867,0,0,0,8.858-8.856m-8.858,5.313a5.314,5.314,0,1,1,5.313-5.313,5.318,5.318,0,0,1-5.313,5.313" transform="translate(-87.436 -89.713)"/><path class="b" d="M139.4,152.176V141.431h3.543v-3.543H135.86v14.288Z" transform="translate(-93.26 -95.647)"/><path class="b" d="M156.58,152.176V137.889H149.5v3.543h3.54v10.745Z" transform="translate(-75.531 -95.647)"/></svg>