<svg xmlns="http://www.w3.org/2000/svg" width="125.33" height="125.328" viewBox="0 0 125.33 125.328"><defs><style>.a{fill:#233746;}.b{fill:#fff;}</style></defs><path class="a" d="M242.67,284.783A62.665,62.665,0,1,1,180,222.119a62.666,62.666,0,0,1,62.666,62.664" transform="translate(-117.34 -222.119)"/><path class="b" d="M142.235,257.3a1.275,1.275,0,0,0-1.275,1.275v12.667a1.275,1.275,0,0,0,2.551,0V258.577a1.275,1.275,0,0,0-1.275-1.275" transform="translate(-86.58 -176.3)"/><path class="b" d="M154.434,247.8a1.275,1.275,0,0,0-1.275,1.275v3.861a7.387,7.387,0,0,1-1.008,3.727l-1.388,2.367a2.65,2.65,0,0,0-.359,1.324v24.114a1.274,1.274,0,1,0,2.549,0V260.354a.06.06,0,0,1,.009-.035l1.388-2.369a9.914,9.914,0,0,0,1.361-5.014v-3.861a1.275,1.275,0,0,0-1.275-1.275" transform="translate(-74.282 -188.675)"/><path class="b" d="M211.442,279.83H211.2L204.6,253.372h4.123a4.568,4.568,0,0,0,0-9.136h-6.435a1.989,1.989,0,0,0-3.612,0H187.814v-.891a4.737,4.737,0,0,0-7.685-3.714,4.727,4.727,0,0,0-6.992-1.112,4.726,4.726,0,0,0-6.923-1.034,4.738,4.738,0,0,0-8.684,2.625v3.474a6.633,6.633,0,0,0-1.929.325,7.01,7.01,0,0,0-.815.327H140.831a1.993,1.993,0,0,0-3.617,0h-6.262a4.568,4.568,0,1,0,0,9.136H134.9l-6.594,26.458h-.6a1.5,1.5,0,0,0-1.494,1.492v4.153A10.938,10.938,0,0,0,137.142,296.4h4.029A10.939,10.939,0,0,0,152.1,285.475v-4.153a1.494,1.494,0,0,0-1.492-1.492h-.873l-6.594-26.458H148.8a11.721,11.721,0,0,0,2.035,12.28l9.322,10.561v5.5a1.275,1.275,0,0,0,2.551,0v-5.979a1.276,1.276,0,0,0-.32-.843l-9.64-10.922a9.177,9.177,0,0,1-1.391-10.079l2.634-5.459a4.051,4.051,0,0,1,5.565-1.81l10.977,5.894a1.392,1.392,0,0,1,0,2.452l-1.439.774a6.812,6.812,0,0,1-6.255.1l-3.327-1.66a1.275,1.275,0,1,0-1.137,2.282l3.327,1.658a9.357,9.357,0,0,0,8.447-.055l1.639,1.975a5.249,5.249,0,0,1,1.211,3.35v5.268a1.274,1.274,0,1,0,2.549,0v-5.268a7.81,7.81,0,0,0-1.8-4.98l-1.358-1.635a3.913,3.913,0,0,0,1.423-3.106,3.826,3.826,0,0,0-.044-.516,4.714,4.714,0,0,0,5.406-.472,4.733,4.733,0,0,0,3.893,2.047,4.683,4.683,0,0,0,1.584-.274v5.385a1.274,1.274,0,1,0,2.549,0v-6.46h9.165l-6.591,26.458h-.516a1.853,1.853,0,0,0-1.851,1.851v3.794A10.938,10.938,0,0,0,198.335,296.4h4.029a10.937,10.937,0,0,0,10.927-10.927v-3.794a1.851,1.851,0,0,0-1.849-1.851M128.932,248.8a2.02,2.02,0,0,1,2.019-2.019h7.92l1.008,4.038h-8.928a2.022,2.022,0,0,1-2.019-2.019m20.617,36.671a8.388,8.388,0,0,1-8.378,8.378h-4.029a8.387,8.387,0,0,1-8.376-8.378v-3.1h20.783ZM147.1,279.83H130.938l6.594-26.458h2.981ZM141.5,246.785h10.487c-.1.175-.2.352-.288.536l-1.69,3.5h-7.5Zm69.248,2.019a2.023,2.023,0,0,1-2.019,2.019h-4.757l-1.008-4.038h5.765a2.022,2.022,0,0,1,2.019,2.019m-10.411-2.019,1.008,4.038H187.738a4.863,4.863,0,0,0,.076-.845v-3.193Zm-40.26-2.733V240.11a2.193,2.193,0,0,1,4.386,0v6.246l-3.7-1.985a7.388,7.388,0,0,0-.686-.32m6.935,3.674v-6.568a2.193,2.193,0,0,1,4.386,0v7.883a2.171,2.171,0,0,1-.21.928Zm11.32,1.315a2.193,2.193,0,1,1-4.386,0v-6.859a2.193,2.193,0,0,1,4.386,0Zm4.74,3.131a2.2,2.2,0,0,1-2.192-2.194v-6.633a2.193,2.193,0,1,1,4.386,0v6.633a2.2,2.2,0,0,1-2.194,2.194m27.671,33.3a8.387,8.387,0,0,1-8.376,8.378h-4.031a8.387,8.387,0,0,1-8.376-8.378v-3.1h10.39a1.274,1.274,0,1,0,0-2.549H192.4l6.591-26.458h2.984l6.594,26.458h-2.788a1.274,1.274,0,1,0,0,2.549h4.959Z" transform="translate(-105.778 -204.862)"/></svg>