<svg xmlns="http://www.w3.org/2000/svg" width="124.8" height="124.798" viewBox="0 0 124.8 124.798"><defs><style>.a{fill:#233746;}.b{fill:#fff;}</style></defs><path class="a" d="M242.14,489.747a62.4,62.4,0,1,1-62.4-62.4,62.4,62.4,0,0,1,62.4,62.4" transform="translate(-117.34 -427.348)"/><path class="b" d="M215.554,488.155l-6.3-6.393a1.364,1.364,0,0,0-1.946,0,1.408,1.408,0,0,0,0,1.975l.877.889-21.166,21.458-7.552-7.655,21.169-21.455,2.156,2.186a1.363,1.363,0,0,0,1.949,0,1.41,1.41,0,0,0,0-1.973l-3.125-3.165c-2.476-2.575-4.1-5.5-6.391-8.255a5.426,5.426,0,0,0-4.514-8.565,5.4,5.4,0,0,0-5.544-5.62,5.4,5.4,0,0,0-5.546-5.622,5.343,5.343,0,0,0-9.361-3.723l-.324-.331a5.255,5.255,0,0,0-7.492,0,5.41,5.41,0,0,0-1.544,4.057,5.4,5.4,0,0,0-5.549,5.622,5.239,5.239,0,0,0-3.474,1.1,6.526,6.526,0,0,0-5.731.706,7.7,7.7,0,0,0-3.666,6.351l-1.562,12.237-15.956,16.176a1.405,1.405,0,0,0,0,1.973l23.115,23.43a1.36,1.36,0,0,0,1.946,0l13.952-14.143a1.41,1.41,0,0,0,0-1.973l-2.344-2.376c2.629-2.667,5.27-4.017,8.63-5.557a26.559,26.559,0,0,1,8.63,5.557l-2.344,2.376a1.411,1.411,0,0,0,0,1.973l13.95,14.143a1.366,1.366,0,0,0,1.951,0l23.113-23.43a1.405,1.405,0,0,0,0-1.973m-24.6-28.165a2.62,2.62,0,0,1,2.328,3.621c-1.108-1.144-2.234-2.269-3.351-3.4Zm-5.544-5.624a2.614,2.614,0,0,1,2.325,3.624,15.405,15.405,0,0,0-4.018-2.964,2.506,2.506,0,0,1,1.693-.66M148.074,464.72l-.327-.329a2.608,2.608,0,0,1,0-3.647,2.524,2.524,0,0,1,3.6,0l.322.326-1.8,1.825Zm16.312-20.839a2.521,2.521,0,0,1,3.6,0l.322.329-3.6,3.647-.322-.329a2.6,2.6,0,0,1,0-3.647m-6.291,7.444a2.567,2.567,0,0,1,.745-1.822,2.521,2.521,0,0,1,3.6,0l.324.326-1.8,1.825-1.8,1.825-.322-.331a2.567,2.567,0,0,1-.745-1.822m-3,3.043a2.523,2.523,0,0,1,1.8.755l.324.329-3.6,3.647-.324-.329a2.6,2.6,0,0,1,0-3.647,2.518,2.518,0,0,1,1.8-.755m-7.508,1.4a4.1,4.1,0,0,1,2.526-.639,5.425,5.425,0,0,0-.306,2.079,5.328,5.328,0,0,0-4.555,2.225,5.014,5.014,0,0,1,2.335-3.665m1.46,54.831-21.166-21.455,2.506-2.54,21.164,21.455Zm27.348-21.342a17.5,17.5,0,0,0-3.07-1.537,31.322,31.322,0,0,0,3.719-3.443,1.405,1.405,0,0,0,0-1.973,1.363,1.363,0,0,0-1.948,0,21.208,21.208,0,0,1-5.45,4.413c-3.762,1.908-6.935,3.307-9.964,6.377l-11.707-11.867a1.363,1.363,0,0,0-1.948,0,1.41,1.41,0,0,0,0,1.973l15.026,15.231-7.55,7.655-21.169-21.455,7.552-7.655,1.364,1.382a1.364,1.364,0,0,0,1.946,0,1.408,1.408,0,0,0,0-1.975L141.828,475l1.361-1.382a1.4,1.4,0,0,0,.393-.808l1.048-8.236a9.852,9.852,0,0,0,2.465,3.1,1.378,1.378,0,0,0,1.951,0l23.48-23.8c2.293-2.327,5.9,1.313,3.6,3.647a1.405,1.405,0,0,0,0,1.973,1.363,1.363,0,0,0,1.948,0c2.319-2.352,5.919,1.294,3.6,3.647a1.409,1.409,0,0,0-.4.989c0-.324-10.939-.171-11.826-.171-5.994,0-6.988,9-1.062,10.17l6.826,2.049a6.72,6.72,0,0,1,2.835,1.711l5.633,5.708-3.975,4.031a1.405,1.405,0,0,0,0,1.973,1.36,1.36,0,0,0,1.946,0l4.948-5.015a1.408,1.408,0,0,0,0-1.975l-6.6-6.7a9.449,9.449,0,0,0-4-2.41l-6.9-2.07c-2.54-.764-2.78-4.684.349-4.684h9.786c2.659,0,4.932,1.544,6.748,3.385,0,0,5.971,6.078,6.375,6.536,2.353,2.654,3.858,5.814,6.332,8.322l-17.849,18.093a25.387,25.387,0,0,0-4.443-3.837M191.466,510.6l-2.506-2.54L210.129,486.6l2.506,2.54Z" transform="translate(-107.855 -410.978)"/><path class="b" d="M145.351,440.776a1.4,1.4,0,0,0,1.4-1.4v-2.853a1.4,1.4,0,1,0-2.792,0v2.853a1.4,1.4,0,0,0,1.4,1.4" transform="translate(-82.952 -417.11)"/><path class="b" d="M141.875,440.389a1.4,1.4,0,1,0,2.556-1.118l-1.142-2.614a1.4,1.4,0,0,0-2.559,1.118Z" transform="translate(-87.274 -416.206)"/><path class="b" d="M140.372,442.145a1.4,1.4,0,1,0,1.894-2.049l-2.093-1.938a1.4,1.4,0,1,0-1.894,2.049Z" transform="translate(-90.876 -413.864)"/><path class="b" d="M147.639,441.108a1.374,1.374,0,0,0,.558.118,1.394,1.394,0,0,0,1.28-.838l1.144-2.614a1.4,1.4,0,0,0-2.556-1.118l-1.146,2.617a1.4,1.4,0,0,0,.72,1.836" transform="translate(-79.28 -416.205)"/><path class="b" d="M150.573,442.514a1.391,1.391,0,0,0,.947-.368l2.1-1.938a1.4,1.4,0,1,0-1.9-2.049l-2.093,1.938a1.393,1.393,0,0,0,.947,2.417" transform="translate(-76.218 -413.863)"/><path class="b" d="M137.758,464.851a1.573,1.573,0,1,1-1.169,1.892,1.573,1.573,0,0,1,1.169-1.892" transform="translate(-92.526 -378.95)"/></svg>